<svg xmlns="http://www.w3.org/2000/svg" width="80" height="80" viewBox="0 0 80 80" fill="none"><path d="M9.67123 43.347C9.67123 43.7894 9.4955 44.2137 9.1827 44.5265C8.86989 44.8393 8.44564 45.015 8.00327 45.015H4.66734C4.3504 45.0149 4.04006 44.9245 3.77265 44.7544C3.50524 44.5842 3.29184 44.3414 3.15743 44.0544C3.02302 43.7674 2.97316 43.448 3.0137 43.1337C3.05425 42.8194 3.1835 42.5231 3.38634 42.2795L6.04007 39.0954C6.21656 38.8851 6.3133 38.6193 6.3133 38.3448C6.3133 38.0703 6.21656 37.8045 6.04007 37.5942L3.38634 34.4067C3.1835 34.1632 3.05425 33.8669 3.0137 33.5526C2.97316 33.2383 3.02302 32.9189 3.15743 32.6318C3.29184 32.3448 3.50524 32.102 3.77265 31.9319C4.04006 31.7618 4.3504 31.6714 4.66734 31.6713H8.50366C8.81264 31.6691 9.10835 31.5454 9.32684 31.3269C9.54533 31.1084 9.66905 30.8127 9.67123 30.5037V26.6673C9.67135 26.3504 9.76176 26.0401 9.93189 25.7727C10.102 25.5052 10.3448 25.2918 10.6318 25.1574C10.9188 25.023 11.2382 24.9732 11.5526 25.0137C11.8669 25.0542 12.1632 25.1835 12.4067 25.3863L15.5908 28.0401C15.8011 28.2166 16.0669 28.3133 16.3414 28.3133C16.616 28.3133 16.8817 28.2166 17.092 28.0401L20.2795 25.3863C20.523 25.1835 20.8193 25.0542 21.1336 25.0137C21.448 24.9732 21.7673 25.023 22.0544 25.1574C22.3414 25.2918 22.5842 25.5052 22.7543 25.7727C22.9244 26.0401 23.0148 26.3504 23.0149 26.6673V30.0033C23.0157 30.4277 22.8547 30.8364 22.5646 31.1462C22.2746 31.456 21.8774 31.6436 21.4539 31.6708C21.0304 31.698 20.6125 31.5628 20.2852 31.2926C19.9579 31.0225 19.7459 30.6378 19.6924 30.2168L19.2303 30.6021C18.4204 31.2787 17.3985 31.6494 16.3431 31.6494C15.2877 31.6494 14.2658 31.2787 13.4558 30.6021L13.0072 30.2285V30.5037C13.0041 31.6971 12.5286 32.8408 11.6847 33.6847C10.8408 34.5286 9.69711 35.0041 8.50366 35.0072H8.22844L8.60207 35.4559C9.2787 36.2658 9.64936 37.2877 9.64936 38.3431C9.64936 39.3985 9.2787 40.4204 8.60207 41.2304L8.21677 41.6924C8.61889 41.7443 8.98834 41.9409 9.25603 42.2454C9.52372 42.55 9.67132 42.9416 9.67123 43.347Z" fill="#6357FF"></path><path d="M27.7976 65C24.7909 65 21.8517 64.1084 19.3516 62.4379C16.8516 60.7675 14.9031 58.3932 13.7525 55.6153C12.6018 52.8374 12.3008 49.7807 12.8874 46.8317C13.474 43.8827 14.9218 41.1739 17.0479 39.0478C19.174 36.9217 21.8828 35.4738 24.8318 34.8873C27.7808 34.3007 30.8375 34.6017 33.6153 35.7524C36.3932 36.903 38.7675 38.8515 40.4379 41.3516C42.1084 43.8516 43 46.7908 43 49.7976C42.9956 53.8282 41.3926 57.6924 38.5425 60.5425C35.6925 63.3926 31.8282 64.9956 27.7976 65ZM27.7976 38.3958C25.5426 38.3958 23.3382 39.0645 21.4631 40.3173C19.5881 41.5702 18.1267 43.3509 17.2638 45.4343C16.4008 47.5177 16.175 49.8102 16.6149 52.022C17.0549 54.2337 18.1408 56.2653 19.7354 57.8599C21.3299 59.4544 23.3615 60.5404 25.5732 60.9803C27.785 61.4202 30.0775 61.1945 32.1609 60.3315C34.2443 59.4685 36.025 58.0071 37.2779 56.1321C38.5307 54.2571 39.1994 52.0526 39.1994 49.7976C39.1961 46.7747 37.9937 43.8765 35.8562 41.739C33.7187 39.6014 30.8205 38.3991 27.7976 38.3958Z" fill="#6357FF"></path></svg>