<svg xmlns="http://www.w3.org/2000/svg" width="80" height="80" viewBox="0 0 80 80" fill="none"><g clip-path="url(#clip0_198_1701)"><path d="M42.5112 54.2087C42.1986 53.8962 41.7748 53.7207 41.3329 53.7207C40.8909 53.7207 40.4671 53.8962 40.1545 54.2087L30.7762 63.5887L26.2962 59.167C25.9868 58.8498 25.564 58.6686 25.121 58.6631C24.6779 58.6577 24.2508 58.8284 23.9337 59.1378C23.6165 59.4473 23.4353 59.87 23.4298 60.313C23.4243 60.7561 23.5951 61.1832 23.9045 61.5003L28.4779 66.0003C28.7647 66.3096 29.1112 66.5576 29.4965 66.7295C29.8817 66.9014 30.2977 66.9935 30.7195 67.0003H30.7745C31.188 67.0017 31.5975 66.9209 31.9795 66.7627C32.3614 66.6045 32.7082 66.372 32.9995 66.0787L42.5112 56.5653C42.8236 56.2528 42.9992 55.829 42.9992 55.387C42.9992 54.9451 42.8236 54.5212 42.5112 54.2087V54.2087Z" fill="#6357FF"></path><path d="M21.4833 63.5983C18.2651 63.3042 15.2017 62.0809 12.6662 60.0771C10.1307 58.0734 8.23242 55.3758 7.20246 52.3126C6.17249 49.2495 6.05528 45.9529 6.86509 42.8244C7.6749 39.6958 9.3768 36.8702 11.7636 34.6914C14.1504 32.5127 17.1191 31.0748 20.3084 30.5529C23.4976 30.031 26.7698 30.4476 29.7266 31.7518C32.6834 33.0561 35.1972 35.1919 36.962 37.8991C38.7268 40.6064 39.6665 43.7683 39.6667 47C39.6667 47.5116 39.6417 48.0183 39.5983 48.5183C39.5779 48.7368 39.6009 48.9572 39.6659 49.1669C39.7309 49.3765 39.8367 49.5712 39.9771 49.7398C40.1176 49.9085 40.29 50.0477 40.4844 50.1496C40.6788 50.2514 40.8914 50.3139 41.11 50.3333C41.3285 50.3553 41.5491 50.3334 41.759 50.2689C41.9689 50.2045 42.1637 50.0987 42.3322 49.9579C42.5006 49.8171 42.6393 49.6441 42.7399 49.4489C42.8406 49.2538 42.9012 49.0405 42.9183 48.8216C42.9717 48.2166 43 47.6116 43 47C42.9998 43.1218 41.8721 39.3274 39.7542 36.0786C37.6362 32.8299 34.6195 30.2669 31.0711 28.7019C27.5228 27.1368 23.596 26.6372 19.7688 27.2637C15.9416 27.8903 12.3791 29.616 9.51507 32.2309C6.65103 34.8457 4.609 38.2368 3.63758 41.9913C2.66617 45.7458 2.80729 49.7018 4.04375 53.3775C5.28021 57.0533 7.55868 60.2903 10.6018 62.6944C13.6448 65.0985 17.3212 66.566 21.1833 66.9183H21.335C21.777 66.938 22.2088 66.7813 22.5352 66.4826C22.8617 66.184 23.0562 65.7678 23.0758 65.3258C23.0955 64.8838 22.9388 64.452 22.6401 64.1256C22.3415 63.7991 21.9254 63.6047 21.4833 63.585V63.5983Z" fill="#6357FF"></path><path d="M21.333 38.6667V46.31L16.8213 50.8217C16.6621 50.9754 16.5352 51.1593 16.4478 51.3626C16.3605 51.566 16.3145 51.7847 16.3126 52.006C16.3106 52.2273 16.3528 52.4468 16.4366 52.6516C16.5204 52.8564 16.6442 53.0425 16.8007 53.199C16.9571 53.3555 17.1432 53.4792 17.3481 53.563C17.5529 53.6468 17.7724 53.689 17.9937 53.6871C18.215 53.6851 18.4337 53.6392 18.637 53.5518C18.8403 53.4645 19.0242 53.3375 19.178 53.1783L24.178 48.1783C24.4906 47.8658 24.6662 47.442 24.6663 47V38.6667C24.6663 38.2246 24.4907 37.8007 24.1782 37.4882C23.8656 37.1756 23.4417 37 22.9997 37C22.5576 37 22.1337 37.1756 21.8211 37.4882C21.5086 37.8007 21.333 38.2246 21.333 38.6667V38.6667Z" fill="#6357FF"></path></g><defs><clipPath id="clip0_198_1701"><rect width="40" height="40" fill="white" transform="translate(3 27)"></rect></clipPath></defs></svg>