<?xml version="1.0" encoding="UTF-8"?>
<svg id="Ebene_1" data-name="Ebene 1" xmlns="http://www.w3.org/2000/svg" viewBox="0 0 137.5374 30.7888">
  <defs>
    <style>
      .cls-1 {
        fill-rule: evenodd;
      }

      .cls-1, .cls-2 {
        fill: #005496;
        stroke-width: 0px;
      }
    </style>
  </defs>
  <path class="cls-1" d="M0,30.7888h16.7935c5.1338,0,9.0391-.5024,11.8288-2.2317,4.0173-2.4545,6.3602-6.9183,6.3602-12.3305,0-8.9271-5.691-14.2266-16.4586-14.2266H0v28.7887h0ZM6.6954,25.3774V7.1324h11.884c6.3043,0,9.4844,3.1249,9.4844,8.9835,0,7.1407-4.2402,9.2615-12.7209,9.2615H6.6954"/>
  <path class="cls-1" d="M47.613,7.1324h22.0944v18.2451h-22.0944V7.1324ZM40.9188,8.806v15.1769c0,5.411,1.7293,6.8059,7.1415,6.8059h21.202c5.411,0,7.1403-1.3949,7.1403-6.8059v-15.1769c0-5.4122-1.7293-6.8059-7.1403-6.8059h-21.202c-5.4122,0-7.1415,1.3937-7.1415,6.8059"/>
  <polyline class="cls-2" points="124.2592 7.1324 137.5374 7.1324 137.5374 2.0001 104.3405 2.0001 104.3405 7.1324 117.5638 7.1324 117.5638 30.7888 124.2592 30.7888 124.2592 7.1324"/>
  <circle class="cls-2" cx="90.2591" cy="7.5768" r="7.5768"/>
</svg>