<svg width="268" height="61" viewBox="0 0 268 61" fill="none" xmlns="http://www.w3.org/2000/svg">
<path d="M93.0599 38.04V38.46C93.0599 39.62 92.1199 40.55 90.9699 40.55H81.9899C80.8299 40.55 79.8999 39.61 79.8999 38.46V22.94C79.8999 21.78 80.8399 20.85 81.9899 20.85H90.8199C91.9799 20.85 92.9099 21.79 92.9099 22.94V23.36C92.9099 24.52 91.9699 25.45 90.8199 25.45H84.6899V28.3H90.0799C91.2399 28.3 92.1699 29.24 92.1699 30.39V30.75C92.1699 31.91 91.2299 32.84 90.0799 32.84H84.6899V35.93H90.9699C92.1199 35.94 93.0599 36.88 93.0599 38.04Z" fill="#1D71B8"/>
<path d="M97.25 33.79V22.88C97.25 21.72 98.19 20.79 99.34 20.79H99.94C101.1 20.79 102.03 21.73 102.03 22.88V33.37C102.03 34.96 102.78 36.3 105.32 36.3C107.86 36.3 108.61 34.95 108.61 33.37V22.88C108.61 21.72 109.55 20.79 110.7 20.79H111.3C112.46 20.79 113.39 21.73 113.39 22.88V33.79C113.39 38.28 109.92 40.97 105.31 40.97C100.72 40.97 97.25 38.27 97.25 33.79Z" fill="#1D71B8"/>
<path d="M133.28 24.94C131.95 22.41 129.24 20.92 126.38 20.92H122.31C120.22 20.92 118.53 22.61 118.53 24.7V38.38C118.53 39.54 119.47 40.47 120.62 40.47H121.22C122.38 40.47 123.31 39.53 123.31 38.38V34.98H125.59L128.14 39.42C128.51 40.07 129.21 40.47 129.96 40.47H130.25C131.86 40.47 132.87 38.72 132.06 37.32L130.23 34.16C133.46 32.54 135.22 28.61 133.28 24.94ZM126.91 30.8H123.32V25.41H126.91C128.23 25.41 129.31 26.58 129.31 28.1C129.31 29.63 128.23 30.8 126.91 30.8Z" fill="#1D71B8"/>
<path d="M136.09 31C136.09 25.29 140.61 20.92 146.17 20.92C151.74 20.92 156.25 25.3 156.25 31C156.25 36.71 151.73 41.08 146.17 41.08C140.6 41.09 136.09 36.71 136.09 31ZM151.47 31C151.47 27.75 149.13 25.6 146.17 25.6C143.21 25.6 140.87 27.75 140.87 31C140.87 34.24 143.21 36.4 146.17 36.4C149.13 36.4 151.47 34.25 151.47 31Z" fill="#1D71B8"/>
<path d="M225.62 31C225.62 36.7 221.11 41.09 215.54 41.09C209.97 41.09 205.45 36.71 205.45 31C205.45 25.29 209.97 20.92 215.54 20.92C217.52 20.92 219.36 21.47 220.92 22.44C222.28 23.28 222.27 25.26 220.88 26.05L220.39 26.33C219.73 26.71 218.93 26.69 218.27 26.31C217.48 25.85 216.54 25.6 215.54 25.6C212.58 25.6 210.24 27.76 210.24 31C210.24 34.25 212.58 36.4 215.54 36.4C217.82 36.4 219.72 35.13 220.47 33.06H217.61C216.45 33.06 215.52 32.12 215.52 30.97C215.52 29.81 216.46 28.88 217.61 28.88H225.42C225.44 29.03 225.48 29.17 225.5 29.33C225.57 29.87 225.62 30.42 225.62 31Z" fill="#29235C"/>
<path d="M228.28 31C228.28 25.29 232.8 20.92 238.36 20.92C243.93 20.92 248.44 25.3 248.44 31C248.44 36.71 243.92 41.08 238.36 41.08C232.8 41.09 228.28 36.71 228.28 31ZM243.66 31C243.66 27.75 241.32 25.6 238.36 25.6C235.4 25.6 233.06 27.75 233.06 31C233.06 34.24 235.4 36.4 238.36 36.4C241.32 36.4 243.66 34.25 243.66 31Z" fill="#29235C"/>
<path d="M185.56 23.57L181.3 39.01C181.05 39.92 180.22 40.55 179.28 40.55H177.02C176.08 40.55 175.25 39.92 175 39.01L172.01 28.19L169.02 39.01C168.77 39.92 167.94 40.55 167 40.55H164.74C163.8 40.55 162.97 39.92 162.72 39.01L158.46 23.57C158.09 22.24 159.1 20.92 160.48 20.92H161.08C162.04 20.92 162.88 21.58 163.11 22.51L166.01 34.26L169.26 22.45C169.51 21.54 170.34 20.91 171.28 20.91H172.71C173.65 20.91 174.48 21.54 174.73 22.45L178 34.27L180.9 22.52C181.13 21.58 181.97 20.93 182.93 20.93H183.53C184.92 20.92 185.93 22.24 185.56 23.57Z" fill="#29235C"/>
<path d="M195.93 20.82H192.82C191.92 20.82 191.13 21.39 190.84 22.24L185.58 37.73C185.12 39.09 186.13 40.5 187.56 40.5H188.31C189.22 40.5 190.03 39.91 190.31 39.04L190.49 38.48H198.27L198.45 39.04C198.73 39.91 199.53 40.5 200.45 40.5H201.21C202.65 40.5 203.66 39.09 203.19 37.73L197.92 22.24C197.62 21.39 196.83 20.82 195.93 20.82ZM191.92 33.98L194.38 26.29L196.84 33.98H191.92Z" fill="#29235C"/>
<path d="M267.71 22.88V38.4C267.71 39.56 266.77 40.49 265.62 40.49H264.88C264.2 40.49 263.57 40.16 263.17 39.61L256.04 29.58V38.4C256.04 39.56 255.1 40.49 253.95 40.49H253.35C252.19 40.49 251.26 39.55 251.26 38.4V22.88C251.26 21.72 252.2 20.79 253.35 20.79H254.32C255 20.79 255.63 21.12 256.03 21.67L262.93 31.39V22.89C262.93 21.73 263.87 20.8 265.02 20.8H265.61C266.77 20.78 267.71 21.72 267.71 22.88Z" fill="#29235C"/>
<path d="M12.7901 22.2L15.3601 27.46L17.9301 22.2C18.8401 20.33 17.4801 18.15 15.4101 18.15H15.3101C13.2401 18.15 11.8801 20.33 12.7901 22.2Z" fill="#1D71B8"/>
<path d="M17.78 31C17.5 31.57 17.51 32.23 17.78 32.8L17.95 33.14L23.73 44.97L24.19 45.82C24.81 46.97 26.47 46.93 27.04 45.76L27.42 44.98L38.83 22.24C39.77 20.37 38.41 18.17 36.32 18.17C35.26 18.17 34.28 18.77 33.81 19.72L24.99 37.31L22.97 33.16H23L28.35 22.22C29.26 20.35 27.9 18.17 25.83 18.17H25.82C24.75 18.17 23.77 18.78 23.3 19.74L17.78 31Z" fill="#1D71B8"/>
<path d="M60.13 30.57C60.13 46.94 46.81 60.25 30.45 60.25C14.07 60.25 0.76001 46.94 0.76001 30.57C0.76001 14.2 14.08 0.890015 30.44 0.890015C37.49 0.890015 43.97 3.36001 49.07 7.48001C51.14 9.15001 49.96 12.5 47.3 12.5C46.66 12.5 46.03 12.28 45.53 11.87C41.21 8.37002 35.65 6.34002 29.63 6.54002C17.36 6.95002 7.26001 16.71 6.46001 28.96C5.52001 43.44 17.48 55.43 31.94 54.55C44.08 53.81 53.85 43.92 54.45 31.77C54.56 29.48 54.35 27.26 53.86 25.15C53.67 24.35 52.94 23.79 52.12 23.79H49.69C48.94 23.79 48.26 24.21 47.93 24.88L37.86 44.97L37.48 45.75C36.91 46.92 35.25 46.96 34.63 45.81L34.17 44.97L33.33 43.26C33.05 42.68 33.05 42.01 33.34 41.44L35.43 37.27L44.13 19.94V19.93L44.25 19.7C44.31 19.58 44.38 19.47 44.45 19.36C44.48 19.32 44.51 19.28 44.54 19.24C44.57 19.19 44.61 19.15 44.65 19.1C44.67 19.08 44.69 19.06 44.71 19.03C44.74 19 44.77 18.97 44.81 18.93C45.3 18.47 45.97 18.17 46.73 18.17H47.21H51.03H54.82C56.46 18.17 57.91 19.21 58.46 20.76C58.81 21.75 59.1 22.76 59.34 23.79C59.86 25.98 60.13 28.24 60.13 30.57Z" fill="#29235C"/>
</svg>
